<?xml version="1.0" standalone="no"?>
<!DOCTYPE svg PUBLIC "-//W3C//DTD SVG 20010904//EN"
 "http://www.w3.org/TR/2001/REC-SVG-20010904/DTD/svg10.dtd">
<svg version="1.0" xmlns="http://www.w3.org/2000/svg"
 width="260.000000pt" height="260.000000pt" viewBox="0 0 260.000000 260.000000"
 preserveAspectRatio="xMidYMid meet">
<metadata>
Created by potrace 1.11, written by Peter Selinger 2001-2013
</metadata>
<g transform="translate(0.000000,260.000000) scale(0.100000,-0.100000)"
fill="#000000" stroke="none">
<path d="M0 1300 l0 -1300 1300 0 1300 0 0 1300 0 1300 -884 0 -883 0 -5 -49
c-9 -92 -68 -141 -171 -141 -90 0 -156 62 -160 149 l-1 41 -248 0 -248 0 0
-1300z m801 558 l0 -273 19 74 c75 283 258 441 512 441 143 0 248 -36 334
-113 29 -26 54 -47 58 -47 3 0 6 30 8 68 l3 67 110 0 110 0 0 -725 c0 -658 -2
-731 -17 -788 -29 -103 -68 -172 -138 -242 -147 -147 -366 -196 -602 -136
-142 36 -237 89 -303 171 l-37 44 63 71 62 70 58 -55 c34 -33 87 -69 126 -88
65 -30 74 -32 188 -32 139 0 182 14 258 84 67 62 89 122 96 262 l6 117 -46
-39 c-143 -120 -375 -149 -547 -69 -141 66 -267 239 -307 424 -12 55 -13 25
-14 -301 l-1 -363 -140 0 -140 0 -2 825 -3 825 143 0 142 0 1 -272z"/>
<path d="M1305 1891 c-126 -33 -205 -128 -252 -301 -23 -88 -23 -308 0 -403
19 -76 63 -169 103 -216 44 -53 117 -84 210 -89 139 -8 243 40 314 142 l30 45
0 324 0 324 -35 46 c-35 46 -93 91 -150 116 -36 16 -177 24 -220 12z"/>
</g>
</svg>
